<svg width="460" height="87" viewBox="0 0 460 87" fill="none" xmlns="http://www.w3.org/2000/svg">
<rect width="460" height="87" fill="white"/>
<path d="M113.144 53.264H124.272V62H101.6V25.184H113.144V53.264ZM141.841 62.364C138.894 62.364 136.242 61.7573 133.885 60.544C131.527 59.3307 129.673 57.5973 128.321 55.344C127.003 53.056 126.345 50.3867 126.345 47.336C126.345 44.2853 127.003 41.6333 128.321 39.38C129.673 37.092 131.527 35.3413 133.885 34.128C136.242 32.9147 138.894 32.308 141.841 32.308C144.787 32.308 147.439 32.9147 149.797 34.128C152.154 35.3413 153.991 37.092 155.309 39.38C156.661 41.6333 157.337 44.2853 157.337 47.336C157.337 50.3867 156.661 53.056 155.309 55.344C153.991 57.5973 152.154 59.3307 149.797 60.544C147.439 61.7573 144.787 62.364 141.841 62.364ZM141.841 52.38C142.915 52.38 143.817 51.964 144.545 51.132C145.273 50.2653 145.637 49 145.637 47.336C145.637 45.672 145.273 44.424 144.545 43.592C143.817 42.7253 142.915 42.292 141.841 42.292C140.766 42.292 139.865 42.7253 139.137 43.592C138.409 44.424 138.045 45.672 138.045 47.336C138.045 49 138.391 50.2653 139.085 51.132C139.813 51.964 140.731 52.38 141.841 52.38ZM192.007 32.672V62H180.463V57.528C179.562 58.9147 178.349 60.0413 176.823 60.908C175.333 61.7747 173.547 62.208 171.467 62.208C168.105 62.208 165.47 61.0813 163.563 58.828C161.691 56.5747 160.755 53.524 160.755 49.676V32.672H172.247V48.22C172.247 49.6067 172.611 50.716 173.339 51.548C174.102 52.3453 175.107 52.744 176.355 52.744C177.638 52.744 178.643 52.3453 179.371 51.548C180.099 50.716 180.463 49.6067 180.463 48.22V32.672H192.007ZM215.473 52.172V62H211.105C203.062 62 199.041 57.996 199.041 49.988V42.292H195.401V32.672H199.041V25.6H210.585V32.672H215.369V42.292H210.585V50.196C210.585 50.8893 210.741 51.392 211.053 51.704C211.4 52.016 211.954 52.172 212.717 52.172H215.473ZM225.694 30.332C223.683 30.332 222.071 29.7947 220.858 28.72C219.644 27.6453 219.038 26.2933 219.038 24.664C219.038 23 219.644 21.6307 220.858 20.556C222.071 19.4467 223.683 18.892 225.694 18.892C227.67 18.892 229.264 19.4467 230.478 20.556C231.691 21.6307 232.298 23 232.298 24.664C232.298 26.2933 231.691 27.6453 230.478 28.72C229.264 29.7947 227.67 30.332 225.694 30.332ZM231.414 32.672V62H219.87V32.672H231.414ZM255.399 62L248.171 50.3V62H236.627V23.52H248.171V43.644L255.503 32.672H268.919L257.947 47.44L269.179 62H255.399Z" fill="#007389"/>
<path d="M270.728 43.54C270.728 39.9 271.456 36.6587 272.912 33.816C274.403 30.9733 276.517 28.772 279.256 27.212C281.995 25.6173 285.219 24.82 288.928 24.82C292.117 24.82 294.96 25.4267 297.456 26.64C299.987 27.8187 302.032 29.5 303.592 31.684C305.187 33.868 306.244 36.416 306.764 39.328H294.596C294.041 38.1147 293.244 37.1787 292.204 36.52C291.199 35.8267 290.037 35.48 288.72 35.48C286.779 35.48 285.236 36.208 284.092 37.664C282.983 39.12 282.428 41.0787 282.428 43.54C282.428 46.0013 282.983 47.96 284.092 49.416C285.236 50.872 286.779 51.6 288.72 51.6C290.037 51.6 291.199 51.2707 292.204 50.612C293.244 49.9187 294.041 48.9653 294.596 47.752H306.764C306.244 50.664 305.187 53.212 303.592 55.396C302.032 57.58 299.987 59.2787 297.456 60.492C294.96 61.6707 292.117 62.26 288.928 62.26C285.219 62.26 281.995 61.48 279.256 59.92C276.517 58.3253 274.403 56.1067 272.912 53.264C271.456 50.4213 270.728 47.18 270.728 43.54ZM322.464 53.264H333.592V62H310.92V25.184H322.464V53.264ZM355.165 62.364C351.698 62.364 348.509 61.5493 345.597 59.92C342.72 58.2907 340.432 56.0373 338.733 53.16C337.034 50.2827 336.185 47.0413 336.185 43.436C336.185 39.8307 337.034 36.5893 338.733 33.712C340.432 30.8347 342.72 28.5987 345.597 27.004C348.509 25.3747 351.698 24.56 355.165 24.56C358.632 24.56 361.804 25.3747 364.681 27.004C367.558 28.5987 369.829 30.8347 371.493 33.712C373.192 36.5893 374.041 39.8307 374.041 43.436C374.041 47.0413 373.192 50.2827 371.493 53.16C369.829 56.0373 367.541 58.2907 364.629 59.92C361.752 61.5493 358.597 62.364 355.165 62.364ZM355.165 51.6C357.453 51.6 359.221 50.872 360.469 49.416C361.717 47.9253 362.341 45.932 362.341 43.436C362.341 40.9053 361.717 38.912 360.469 37.456C359.221 35.9653 357.453 35.22 355.165 35.22C352.842 35.22 351.057 35.9653 349.809 37.456C348.561 38.912 347.937 40.9053 347.937 43.436C347.937 45.932 348.561 47.9253 349.809 49.416C351.057 50.872 352.842 51.6 355.165 51.6ZM389.489 25.184V45.932C389.489 47.6307 389.853 48.9827 390.581 49.988C391.344 50.9587 392.557 51.444 394.221 51.444C395.885 51.444 397.116 50.9587 397.913 49.988C398.711 48.9827 399.109 47.6307 399.109 45.932V25.184H410.601V45.932C410.601 49.4333 409.873 52.432 408.417 54.928C406.961 57.3893 404.968 59.244 402.437 60.492C399.907 61.74 397.081 62.364 393.961 62.364C390.841 62.364 388.068 61.74 385.641 60.492C383.249 59.244 381.377 57.3893 380.025 54.928C378.673 52.4667 377.997 49.468 377.997 45.932V25.184H389.489ZM430.92 25.184C434.768 25.184 438.131 25.964 441.008 27.524C443.92 29.084 446.156 31.2507 447.716 34.024C449.276 36.7973 450.056 39.952 450.056 43.488C450.056 46.9893 449.276 50.144 447.716 52.952C446.156 55.76 443.92 57.9787 441.008 59.608C438.131 61.2027 434.768 62 430.92 62H415.58V25.184H430.92ZM429.88 51.704C432.48 51.704 434.543 50.9933 436.068 49.572C437.594 48.1507 438.356 46.1227 438.356 43.488C438.356 40.8533 437.594 38.8253 436.068 37.404C434.543 35.9827 432.48 35.272 429.88 35.272H427.124V51.704H429.88Z" fill="#FF7A59"/>
<circle cx="48.5" cy="43.5" r="43.5" fill="white"/>
<path d="M62.9627 31.6308C61.8147 26.6947 58.8931 22.3526 54.7532 19.4296C50.6133 16.5067 45.5438 15.2067 40.5082 15.7769C35.4726 16.347 30.8221 18.7475 27.4405 22.522C24.0589 26.2966 22.1821 31.182 22.1667 36.2498C22.1645 39.5523 22.9622 42.8062 24.4917 45.7332C21.7046 47.2267 19.4966 49.6088 18.2184 52.501C16.9402 55.3932 16.6652 58.6295 17.4371 61.6959C18.2089 64.7623 19.9834 67.4828 22.4785 69.4252C24.9737 71.3676 28.0463 72.4204 31.2084 72.4164H58.3334C63.3943 72.3929 68.2708 70.5132 72.038 67.1336C75.8053 63.754 78.2015 59.1095 78.7723 54.0808C79.3431 49.052 78.0487 43.9887 75.1348 39.8507C72.2208 35.7128 67.8897 32.7879 62.9627 31.6308Z" fill="url(#paint0_linear_82_44)"/>
<defs>
<linearGradient id="paint0_linear_82_44" x1="17" y1="16" x2="79" y2="72" gradientUnits="userSpaceOnUse">
<stop offset="0.2" stop-color="#007389"/>
<stop offset="1" stop-color="#FF7A59"/>
</linearGradient>
</defs>
</svg>
